<mxfile host="app.diagrams.net" agent="Mozilla/5.0 (Windows NT 10.0; Win64; x64; rv:143.0) Gecko/20100101 Firefox/143.0" version="28.2.4">
  <diagram name="Overtime Flow" id="CfGURqwK-aCOU_pGmiHs">
    <mxGraphModel dx="1287" dy="708" grid="1" gridSize="10" guides="1" tooltips="1" connect="1" arrows="1" fold="1" page="1" pageScale="1" pageWidth="827" pageHeight="1169" math="0" shadow="0">
      <root>
        <mxCell id="0" />
        <mxCell id="1" parent="0" />
        <mxCell id="77eq-0ctrM8wVugaJ-3Z-1" style="edgeStyle=orthogonalEdgeStyle;rounded=0;orthogonalLoop=1;jettySize=auto;html=1;fillColor=#f5f5f5;strokeColor=#666666;gradientColor=#b3b3b3;" parent="1" source="77eq-0ctrM8wVugaJ-3Z-2" target="77eq-0ctrM8wVugaJ-3Z-4" edge="1">
          <mxGeometry relative="1" as="geometry" />
        </mxCell>
        <mxCell id="77eq-0ctrM8wVugaJ-3Z-2" value="Начало" style="ellipse;whiteSpace=wrap;html=1;" parent="1" vertex="1">
          <mxGeometry x="349" y="90" width="130" height="50" as="geometry" />
        </mxCell>
        <mxCell id="77eq-0ctrM8wVugaJ-3Z-3" style="edgeStyle=orthogonalEdgeStyle;rounded=0;orthogonalLoop=1;jettySize=auto;html=1;fillColor=#f5f5f5;strokeColor=#666666;gradientColor=#b3b3b3;" parent="1" source="77eq-0ctrM8wVugaJ-3Z-4" target="77eq-0ctrM8wVugaJ-3Z-6" edge="1">
          <mxGeometry relative="1" as="geometry" />
        </mxCell>
        <mxCell id="77eq-0ctrM8wVugaJ-3Z-4" value="int x1, y1, z1, x2, y2, z2, day1, day2" style="shape=parallelogram;perimeter=parallelogramPerimeter;whiteSpace=wrap;html=1;fixedSize=1;fillColor=#6a00ff;strokeColor=#3700CC;fontColor=#ffffff;" parent="1" vertex="1">
          <mxGeometry x="295.5" y="170" width="237" height="60" as="geometry" />
        </mxCell>
        <mxCell id="77eq-0ctrM8wVugaJ-3Z-5" style="edgeStyle=orthogonalEdgeStyle;rounded=0;orthogonalLoop=1;jettySize=auto;html=1;fillColor=#f5f5f5;strokeColor=#666666;gradientColor=#b3b3b3;" parent="1" source="77eq-0ctrM8wVugaJ-3Z-6" target="77eq-0ctrM8wVugaJ-3Z-9" edge="1">
          <mxGeometry relative="1" as="geometry" />
        </mxCell>
        <mxCell id="77eq-0ctrM8wVugaJ-3Z-6" value="day1 = x1 * 1 + y1 * 2 + z1 * 3;" style="rounded=0;whiteSpace=wrap;html=1;fillColor=#e3c800;fontColor=#000000;strokeColor=#B09500;" parent="1" vertex="1">
          <mxGeometry x="306" y="260" width="216" height="50" as="geometry" />
        </mxCell>
        <mxCell id="77eq-0ctrM8wVugaJ-3Z-7" value="Конец" style="ellipse;whiteSpace=wrap;html=1;" parent="1" vertex="1">
          <mxGeometry x="349" y="540" width="130" height="50" as="geometry" />
        </mxCell>
        <mxCell id="77eq-0ctrM8wVugaJ-3Z-9" value="day2 = x2 * 1 + y2 * 2 + z2 * 3;" style="rounded=0;whiteSpace=wrap;html=1;fillColor=#e3c800;fontColor=#000000;strokeColor=#B09500;" parent="1" vertex="1">
          <mxGeometry x="306" y="350" width="216" height="50" as="geometry" />
        </mxCell>
        <mxCell id="77eq-0ctrM8wVugaJ-3Z-10" style="edgeStyle=orthogonalEdgeStyle;rounded=0;orthogonalLoop=1;jettySize=auto;html=1;fillColor=#f5f5f5;strokeColor=#666666;gradientColor=#b3b3b3;" parent="1" source="77eq-0ctrM8wVugaJ-3Z-11" target="77eq-0ctrM8wVugaJ-3Z-7" edge="1">
          <mxGeometry relative="1" as="geometry" />
        </mxCell>
        <mxCell id="77eq-0ctrM8wVugaJ-3Z-11" value="day1, day2" style="shape=parallelogram;perimeter=parallelogramPerimeter;whiteSpace=wrap;html=1;fixedSize=1;fillColor=#6a00ff;fontColor=#ffffff;strokeColor=#3700CC;" parent="1" vertex="1">
          <mxGeometry x="341" y="440" width="146" height="60" as="geometry" />
        </mxCell>
        <mxCell id="ZDVeBoMT1hru6j4zp7WR-2" style="edgeStyle=orthogonalEdgeStyle;rounded=0;orthogonalLoop=1;jettySize=auto;html=1;fillColor=#f5f5f5;strokeColor=#666666;gradientColor=#b3b3b3;entryX=0.5;entryY=0;entryDx=0;entryDy=0;" edge="1" parent="1" source="77eq-0ctrM8wVugaJ-3Z-9" target="77eq-0ctrM8wVugaJ-3Z-11">
          <mxGeometry relative="1" as="geometry">
            <mxPoint x="410" y="410" as="sourcePoint" />
            <mxPoint x="410" y="450" as="targetPoint" />
          </mxGeometry>
        </mxCell>
      </root>
    </mxGraphModel>
  </diagram>
</mxfile>
